<svg id="グループ_3" data-name="グループ 3" xmlns="http://www.w3.org/2000/svg" xmlns:xlink="http://www.w3.org/1999/xlink" width="105.31" height="79.433" viewBox="0 0 105.31 79.433">
  <defs>
    <clipPath id="clip-path">
      <rect id="長方形_4" data-name="長方形 4" width="105.31" height="79.433" fill="none"/>
    </clipPath>
  </defs>
  <g id="グループ_2" data-name="グループ 2" transform="translate(0 0)" clip-path="url(#clip-path)">
    <path id="パス_14" data-name="パス 14" d="M81.491,105.068c-.894-.211-3.327-1.13-3.327-2.9v-19.3c0-1.775,2.433-2.694,3.327-2.9,1-.236,1.843-.266,2.141-.585.1-.11.02-.354-.314-.327-.31.025-1.227.2-2.344.288-1.338.084-4.36.193-6.181.193s-4.844-.108-6.182-.193c-1.117-.091-2.034-.262-2.344-.288-.333-.027-.416.217-.314.327.3.319,1.139.349,2.141.585.894.211,3.327,1.13,3.327,2.9v19.3c0,1.775-2.433,2.694-3.327,2.9-1,.236-1.842.266-2.141.585-.1.11-.019.354.314.327.31-.025,1.227-.2,2.344-.288,1.338-.084,4.36-.193,6.182-.193s4.844.109,6.181.193c1.117.091,2.034.262,2.344.288.334.027.416-.217.314-.327-.3-.319-1.139-.349-2.141-.585" transform="translate(-22.138 -26.549)" fill="#bdbebf"/>
    <path id="パス_15" data-name="パス 15" d="M42.123,97.583c-1.261-2.355-4.516-3.346-6.18-4.838a2.039,2.039,0,0,1-.81-1.222,1.618,1.618,0,0,1,.287-1.162,3.329,3.329,0,0,1,3.2-.818c1.749.389,1.92,1.582,1.92,1.887,0,.369.149.355.17.178,0-.041.3-2.755.3-2.8-.009-.1-.3.008-.592.032-.325.026-1.305-.062-2.286-.135a10.011,10.011,0,0,0-1.753-.028,4.077,4.077,0,0,0-2.864,1.227,3.29,3.29,0,0,0-.219,4.171,5.537,5.537,0,0,0,1.218,1.148A36.083,36.083,0,0,1,39.2,98.684a2.775,2.775,0,0,1,.731,1.776,2.959,2.959,0,0,1-.827,2.078,4.853,4.853,0,0,1-5.938-.187,3.413,3.413,0,0,1-1.138-2.194,5.321,5.321,0,0,1,.053-1.673,4.051,4.051,0,0,1,.48-1.231,1.453,1.453,0,0,1,.177-.228c.059-.063.09-.114.058-.132-.06-.033-.266.169-.329.242a4.031,4.031,0,0,0-.752,1.439,5.2,5.2,0,0,0,.222,3.442,4.974,4.974,0,0,0,4.484,2.508c4.612,0,5.894-2.785,6.091-4.674a4.286,4.286,0,0,0-.389-2.266" transform="translate(-10.59 -29.777)" fill="#fff"/>
    <path id="パス_16" data-name="パス 16" d="M61.053,94.806a4.879,4.879,0,0,0,.233-3.873,3.75,3.75,0,0,0-1.823-1.771c-1.518-.843-3.878-.471-4.9-.276a38.417,38.417,0,0,1-4.189.576H49.7c-.052,0-.076.088-.039.145.107.166.459.089.82.212a.961.961,0,0,1,.562.48,2.382,2.382,0,0,1,.12.827v9.8a2.378,2.378,0,0,1-.12.827.959.959,0,0,1-.562.481c-.361.123-.713.046-.82.212-.037.057-.014.145.039.145h5.838c.053,0,.076-.088.039-.145-.108-.166-.46-.089-.82-.212a.955.955,0,0,1-.561-.481,2.1,2.1,0,0,1-.119-.717V90.076a.355.355,0,0,1,.073-.2c.213-.313,1.336-.362,2.17-.345A2.09,2.09,0,0,1,58.3,90.894a4.767,4.767,0,0,1,.381,2.1c-.093,1.7-1.378,3.244-2.937,2.8a1.769,1.769,0,0,1-.721-.487c-.182-.226-.22-.279-.254-.251s0,.2.025.3a2.011,2.011,0,0,0,.4.749,2.084,2.084,0,0,0,.972.633,4.584,4.584,0,0,0,2.625,0,3.912,3.912,0,0,0,2.261-1.929" transform="translate(-16.673 -29.77)" fill="#fff"/>
    <path id="パス_17" data-name="パス 17" d="M138.368,93.229a6.962,6.962,0,0,0-3.18-3.743,6.135,6.135,0,0,0-3.307-.8,4.106,4.106,0,0,0-2.587.861,3.435,3.435,0,0,0-1.205,2.036c-.212,1.437.262,1.935.525,2.1a.278.278,0,0,0,.214.058c.029-.019-.037-.05-.084-.089-.125-.1-.234-.288-.3-.776a2.971,2.971,0,0,1,.339-1.682,3.082,3.082,0,0,1,1.421-1.366,3.394,3.394,0,0,1,2.523-.172,3.545,3.545,0,0,1,1.791,1.4,6.008,6.008,0,0,1,1.183,3.363,10.884,10.884,0,0,1-.381,3.869,5.19,5.19,0,0,1-1.43,2.261,4.353,4.353,0,0,1-4.033,1.185,5.126,5.126,0,0,1-1.011-.309,5.579,5.579,0,0,1-2.951-4.493,14.4,14.4,0,0,1,.365-5.338,5.728,5.728,0,0,1,.689-1.495,3.457,3.457,0,0,1,.533-.609c.246-.235.373-.289.367-.348a3.846,3.846,0,0,0-1.441.452,6.25,6.25,0,0,0-3.55,4.941,7.069,7.069,0,0,0,1.705,5.772,8.344,8.344,0,0,0,6.315,2.3c4.135.019,5.823-1.856,6.607-2.924a7.329,7.329,0,0,0,.879-6.456" transform="translate(-41.237 -29.785)" fill="#fff"/>
    <path id="パス_18" data-name="パス 18" d="M116.636,102.579h.141c.053,0,.076-.088.039-.145-.107-.166-.459-.089-.82-.212a.959.959,0,0,1-.562-.481,2.138,2.138,0,0,1-.119-.717V90.575a3.735,3.735,0,0,1,.109-.992.882.882,0,0,1,.551-.516c.361-.123.663-.137.77-.3a.114.114,0,0,0-.114-.17c-.112.013-.441.1-.843.149-.481.044-1.708.126-2.224.155-1.862.1-3.821.144-4.523.565a1.913,1.913,0,0,0-.763.784,1.853,1.853,0,0,0-.043,1.385,1.511,1.511,0,0,0,.618.77,1.488,1.488,0,0,0,1.17.194c.2-.088.339-.251.265-.3-.046-.028-.046.078-.463.025a1.237,1.237,0,0,1-.895-1.006,1.132,1.132,0,0,1,.273-1.015c.5-.464,2.266-.477,3.2-.507v11.119a2.4,2.4,0,0,1-.12.827.959.959,0,0,1-.562.481c-.361.123-.713.046-.82.212-.037.057-.015.145.039.145h5.7Z" transform="translate(-36.315 -29.755)" fill="#fff"/>
    <path id="パス_19" data-name="パス 19" d="M100.7,95.338c-.028-.266-.113-.505-.183-.449a8.2,8.2,0,0,1-.141,2.034,5.766,5.766,0,0,1-.927,2.3,5.951,5.951,0,0,1-3.231,2.271,5.345,5.345,0,0,1-6.406-2.552,7.041,7.041,0,0,1-.7-3.309,7.339,7.339,0,0,1,.084-1.654,5.769,5.769,0,0,1,.927-2.44A5.388,5.388,0,0,1,94,89.519a4.443,4.443,0,0,1,4.28,2.131,3.493,3.493,0,0,1,.42,1.059c.056.325.161.294.161.2V89.822c0-.082-.135-.16-.135-.16a11.09,11.09,0,0,0-8.378-.255,6.675,6.675,0,0,0-4.13,4.431,6.844,6.844,0,0,0,1.524,6.454,6.53,6.53,0,0,0,2.581,1.735,10.265,10.265,0,0,0,5.139.448c.474-.1,3.045-.622,4.215-2.5a7.637,7.637,0,0,0,1.025-4.642" transform="translate(-28.881 -29.794)" fill="#fff"/>
    <path id="パス_20" data-name="パス 20" d="M24.056,98.561c-.1-.022-.1.452-.664,1.293a3.537,3.537,0,0,1-1.576,1.52,8.078,8.078,0,0,1-2.866.424H16.175v-5.51h2.9s.4,0,.587.032a1.7,1.7,0,0,1,.777.283,1.679,1.679,0,0,1,.711,1.324c.009.1.106.136.106.029V93.81c0-.107-.1-.069-.106.029a1.678,1.678,0,0,1-.711,1.324,1.7,1.7,0,0,1-.777.283,5.727,5.727,0,0,1-.587.032h-2.9v-5.6h1.4s.382.014.536.027a1.337,1.337,0,0,1,.544.143,1.784,1.784,0,0,1,.727.808,3.713,3.713,0,0,1,.207,1c.021.333.127.246.127.139V88.681a6.376,6.376,0,0,1-1.613.3H11.8c-.052,0-.076.088-.039.145.107.166.459.089.82.212a.961.961,0,0,1,.562.48,2.382,2.382,0,0,1,.12.827v10.294a2.382,2.382,0,0,1-.12.827.961.961,0,0,1-.562.48c-.361.123-.713.046-.82.212-.037.057-.014.145.039.145H23.045s.088.005.1-.048.687-2.629.8-3.133c.082-.36.183-.846.106-.862" transform="translate(-3.944 -29.779)" fill="#fff"/>
    <path id="パス_21" data-name="パス 21" d="M82.886,102a13.106,13.106,0,0,1-6.658-6.536c-.987-2.165-1.516-4.489-2.338-6.713a13.29,13.29,0,0,0-2.141-3.961,4.186,4.186,0,0,0-1.056-.954,5.505,5.505,0,0,1,.547,2.856,14.636,14.636,0,0,1-.929,3.867c-.349,1.035-3.987,9.061-3.987,9.061a3.109,3.109,0,0,1-.393.574,1.793,1.793,0,0,1-.664.435c-.361.122-.713.046-.82.212-.037.057-.014.145.039.145h4.379c.053,0,.076-.088.039-.145-.108-.166-.462-.072-.809-.23a.744.744,0,0,1-.341-.954c.128-.407.623-1.646.624-1.648l.7-1.6c1.265,0,2.528.007,3.794-.014a.976.976,0,0,1,.434.058,1.019,1.019,0,0,1,.4.468,15.6,15.6,0,0,0,7.687,6.73c2.981,1.214,7.376,1.2,9.537-1.65a10.272,10.272,0,0,1-8.051,0m-13.448-6.4L71.5,90.9c.147.454.8,2.473,1.611,4.7Z" transform="translate(-21.64 -28.156)" fill="#fff"/>
    <path id="パス_22" data-name="パス 22" d="M133.007,10.475C128.8-.894,117.1-.213,111.44,1.192a7.223,7.223,0,0,0-8.632.544c-2.552,2.167-3.788,5.783-4.5,8.241-.153.531-.331,1.128-.551,1.787l-.03.017a11.818,11.818,0,0,0-6.142,10.671,2.433,2.433,0,0,1-.292,1.1c-.018.036-.04.077-.064.12-.617.97-1.136,1.868-1.59,2.69a17.38,17.38,0,0,1-3.987,4.66l-.683.384.341,1.31.325-.135c.041-.011.081-.025.12-.039v0l.059-.023v0a1.941,1.941,0,0,0,.2-.1h0a10.181,10.181,0,0,0,.835-.592c.449-.314.888-.648,1.357-.932a9.42,9.42,0,0,1,2.831-1.085,5.491,5.491,0,0,1,3.244.133c1.218.487,2.5,1.534,2.4,2.829a1.242,1.242,0,0,1-.705,1.044,1.04,1.04,0,0,1-1.322-.373,1.019,1.019,0,0,1,.025-1.023c.329-.474.829-.477.8-.573s-.557-.048-.9.174a1.349,1.349,0,0,0-.6,1.348,1.635,1.635,0,0,0,1.523,1.28,1.957,1.957,0,0,0,1.651-.654,2.1,2.1,0,0,0-.135-2.855c-.616-.666-.688-1.038-.511-1.172a1.21,1.21,0,0,1,.863-.046,8.743,8.743,0,0,1,2.746,1.351,12.116,12.116,0,0,1,2.711,2.641c.182.236.35.48.5.725a8.64,8.64,0,0,1-2.761-.165,3.911,3.911,0,0,1-1.47-.731c-.051.039.363.536,1.449.94a7.6,7.6,0,0,0,2.245.353c.264,0,.514-.013.758-.031a13.128,13.128,0,0,1,1.265,3.049,9.546,9.546,0,0,1-.737,6.657,8.273,8.273,0,0,1-5.563,4.308,8,8,0,0,1-8.971-4.507,6.552,6.552,0,0,1,.614-6.444,5.37,5.37,0,0,1,5.678-1.854,5.838,5.838,0,0,1,3.064,2.046,4.077,4.077,0,0,1,.8,3.459,3.3,3.3,0,0,1-2.348,2.5c-2.125.56-3.894-.172-4.2-2.126-.114-.738.338-2.628,1.974-2.437.426.05.489.389.637.638a2.492,2.492,0,0,0,1.063,1.048c.339.225.627.792.846.817.239.027.141-.929-.153-1.622a2.657,2.657,0,0,0-2.868-1.563A2.907,2.907,0,0,0,92.476,41.4a3.38,3.38,0,0,0,.252,1.846,3.124,3.124,0,0,0,2.1,1.733,4.626,4.626,0,0,0,3.695-.806,4.513,4.513,0,0,0,1.762-3.451A4.691,4.691,0,0,0,98.5,36.69a5.989,5.989,0,0,0-3.8-1.223,6.237,6.237,0,0,0-5.69,3.95,6.757,6.757,0,0,0-.348,4.894,8.135,8.135,0,0,0,6.931,5.18A9.655,9.655,0,0,0,105.653,42.7a8.341,8.341,0,0,1-3.272,7.756,7.785,7.785,0,0,1-4.572,1.613,10.7,10.7,0,0,1-3.449-.475c-.435-.124-.717-.257-.994-.353-.062-.022-.333-.116-.276-.029a8.727,8.727,0,0,0,10.274-.885,9.148,9.148,0,0,0,2.494-4.042,9.558,9.558,0,0,0,.01-4.82,11.39,11.39,0,0,0-1.411-6.566,8.469,8.469,0,0,0,2.7-.974,9.394,9.394,0,0,0,3.412-3.351c.029-.05.064-.111.1-.179a6.376,6.376,0,0,0,.654.013c4.49-.166,6.811-3.347,7.636-6.819a11.276,11.276,0,0,0,.234-3.874,5.775,5.775,0,0,0,.474-4.163,7.781,7.781,0,0,0-1.058-2.425,12.015,12.015,0,0,1,1.74,1.52,12.816,12.816,0,0,1,2.779,4.762,13.125,13.125,0,0,1,.574,3.486,6.917,6.917,0,0,1-2.3.167,2.016,2.016,0,0,1-.983-.335c-.124-.137-.2-.414-.347-.386-.175.033-.239.241-.254.419a1.064,1.064,0,0,0,.29.839,2.528,2.528,0,0,0,1.955.507,6.931,6.931,0,0,0,1.631-.391,12.187,12.187,0,0,1-1.448,5.488,9.037,9.037,0,0,1-4.341,4.359c-.316.1-1.021.672.12.213a9.655,9.655,0,0,0,4.417-4.213,13.357,13.357,0,0,0,1.673-6.011,7.718,7.718,0,0,0,1.725-.992c.12-.091.241-.187.364-.286.684,2.267,1.464,6.519-.528,10.381A11.407,11.407,0,0,1,115.134,39.1a4.241,4.241,0,0,1-2.376-.434c-.225-.128-.827-.491-.945-.968-.048-.193-.039-.491-.2-.522-.187-.037-.394.192-.478.364a1.113,1.113,0,0,0-.032.951c.543,1.176,2.017,1.5,4.009,1.5a12.834,12.834,0,0,0,10.75-6.569,14.505,14.505,0,0,0,1.34-3.592,14.736,14.736,0,0,0,.135-4.615,16.911,16.911,0,0,0-.646-3.348,9.444,9.444,0,0,0,1.777-2.166,10.182,10.182,0,0,0,1.278-7.218,14.124,14.124,0,0,0-5.268-8.024,17.429,17.429,0,0,0-9.987-3.29,21.289,21.289,0,0,1,6.046-.061c5.745.822,8.193,3.326,9.405,4.823a13.372,13.372,0,0,1,3.236,9.413,3.328,3.328,0,0,1-.663,2.079c-.688.69-.319,1.538-1.114,2.71-.26.384-.423.438-.361.566.132.266,1.083-.366,1.885-2a10.087,10.087,0,0,0,.743-2.212,11.246,11.246,0,0,0-.661-6.012m-32.313-4.36c1.337-2.621,3.58-5.743,7.931-5.294a5.706,5.706,0,0,1,1.878.625c-.139.041-.275.082-.4.124A19.812,19.812,0,0,0,99.272,9.851a25.075,25.075,0,0,1,1.421-3.736M92.484,20.795a10.785,10.785,0,0,1,4.733-7.531,38.192,38.192,0,0,1-4.644,8.409l-.205.293c.041-.42.08-.849.116-1.172m17.05,10.245a8.324,8.324,0,0,1-2.761,2.561,9.6,9.6,0,0,1-2.54.9c-.169-.284-.313-.5-.409-.636a11.529,11.529,0,0,0-5.8-4.59,13.084,13.084,0,0,0-6.571-.482c-.725.145-1.316.343-1.685.39-.276.035-.385,0-.421-.092s.08-.289.186-.511c.428-.9,1.628-3.084,2.716-4.794.913-1.318,2.366-2.939,4.481-3.025a4.491,4.491,0,0,1,1.863.357,4.016,4.016,0,0,1,1.535,1.16,2.95,2.95,0,0,1,.64,1.786,1.943,1.943,0,0,1-.557,1.585,1.72,1.72,0,0,1-2.9-1.207.96.96,0,0,1,.646-1,.977.977,0,0,1,.675.04.624.624,0,0,1,.389.8c-.02.054.125.111.173-.167a.925.925,0,0,0-.217-.759.957.957,0,0,0-.359-.252,1.426,1.426,0,0,0-1.7.5,1.5,1.5,0,0,0-.245,1.174,2.325,2.325,0,0,0,.807,1.308,2.232,2.232,0,0,0,2.5.2,2.914,2.914,0,0,0,1.352-2.7,4.012,4.012,0,0,0-2.105-3.029,4.178,4.178,0,0,0-2.4-.474,12.085,12.085,0,0,1,4.76-1.771,8.2,8.2,0,0,1,3.564.233,7.262,7.262,0,0,1,1.97.9A6.2,6.2,0,0,0,105.4,21.1a6.087,6.087,0,0,0-.448,5.852,8.522,8.522,0,0,0,.657,1.1,6.873,6.873,0,0,0,4.362,2.265c-.159.291-.313.526-.442.723m.667-1.174a5.746,5.746,0,0,1-3.422-1.13,4.538,4.538,0,0,1-1.585-2.02,6.666,6.666,0,0,1-.411-2.487,5.149,5.149,0,0,1,2.858-4.422c.054.041.108.08.163.124a8.125,8.125,0,0,1,2.319,2.844,8.6,8.6,0,0,1,.829,3.176,1.837,1.837,0,0,1-1.674-2.88c.3-.423.313-.547.255-.646-.13-.224-.618.033-.932.418a2.414,2.414,0,0,0-.487,1.553,2.141,2.141,0,0,0,1.312,1.963,2.456,2.456,0,0,0,1.537.191,7.1,7.1,0,0,1-.078.942,8.846,8.846,0,0,1-.685,2.378m-1.5-10.408a4.273,4.273,0,0,1,2.666.2,3.479,3.479,0,0,1,2.283,2.89,3.147,3.147,0,0,1-1.131,2.711,3.405,3.405,0,0,1-.786.485,8.906,8.906,0,0,0-.285-1.858,8.779,8.779,0,0,0-2.747-4.428m8.424,7.04a6.864,6.864,0,0,1-4.219,3.083,10.074,10.074,0,0,1-1.971.284,9.008,9.008,0,0,0,.806-3.551,4.381,4.381,0,0,0,.766-.409,3.622,3.622,0,0,0,1.573-3.627,4.284,4.284,0,0,0-4.539-3.6,4.414,4.414,0,0,0-1.464.286,8.5,8.5,0,0,0-2.92-1.434,2.619,2.619,0,0,1-1.108-1.77,2.174,2.174,0,0,1,1.235-2.439,2.209,2.209,0,0,1,1.882.075,1.472,1.472,0,0,1,.695,1.46,1.247,1.247,0,0,1-.821.973,1.137,1.137,0,0,1-1.079-.171c-.1-.091-.145-.2-.193-.214s-.084.017-.084.084a.636.636,0,0,0,.422.612,1.685,1.685,0,0,0,1.7-.247,1.946,1.946,0,0,0,.634-2.052,2.023,2.023,0,0,0-.831-1.055,2.85,2.85,0,0,0-2.712-.1,3.022,3.022,0,0,0-.922,4.676A12.721,12.721,0,0,0,97.039,18.9c-.63.307-1.316.638-1.884.982-.321.194-.274.035-.139-.2a35.342,35.342,0,0,0,3.477-7.24,18.388,18.388,0,0,1,5.215-1.992c.183-.04.363-.077.543-.112h0a18.6,18.6,0,0,1,2.662-.3,11.963,11.963,0,0,1,10.064,4.818,10.173,10.173,0,0,1,1.652,4.108c.021.151.054.385.084.683a2.756,2.756,0,0,1-3.368,1.077,2.542,2.542,0,0,1-1.533-2.286c-.053-.839.3-1.775,1.34-1.775a1.361,1.361,0,0,1,1.041.482,1.168,1.168,0,0,1,.131,1.156c-.125.246-.228.207-.254.241-.015.019,0,.051.078.05a.779.779,0,0,0,.339-.1,1.44,1.44,0,0,0-.369-2.253,1.885,1.885,0,0,0-2.786.839,2.946,2.946,0,0,0-.127,1.892,2.852,2.852,0,0,0,1.172,1.742,3.728,3.728,0,0,0,3.978-.083,3.51,3.51,0,0,0,.4-.358,10.084,10.084,0,0,1-1.632,6.227m1.956-7.571a12.676,12.676,0,0,0-2.311-5.318,11.973,11.973,0,0,0-5.419-3.537c5.2.537,6.2,2.212,7.191,4.07a6.859,6.859,0,0,1,.539,4.784m5.981,3.485a5.311,5.311,0,0,1-.944.374,13.016,13.016,0,0,0-5.154-10.022,18.065,18.065,0,0,1,6.747,8.1c.081.192.2.5.333.892a5.877,5.877,0,0,1-.982.652M117.111,1.89a20.255,20.255,0,0,1,6.172,2.256,4.152,4.152,0,0,0-2.787.317,4.551,4.551,0,0,0-1.7,1.522,4.494,4.494,0,0,0-.6,3.3,3.915,3.915,0,0,0,2.982,3.11,3.39,3.39,0,0,0,3.341-1.4,2.724,2.724,0,0,0,.067-2.857,2.752,2.752,0,0,0-1.8-1.2,2.225,2.225,0,0,0-2.568,1.539c-.055.287-.092.9.313.929.357.022.709-.608.9-1.055A1.531,1.531,0,0,1,123.82,8.1a1.938,1.938,0,0,1,.461,2.283,2.341,2.341,0,0,1-1.2,1.017c-2.187.922-4.051-.448-4.35-2.645a3.8,3.8,0,0,1,.622-2.9,3.853,3.853,0,0,1,1.77-1.347,3.53,3.53,0,0,1,1.475-.2,4.508,4.508,0,0,1,2.441,1.075q.258.22.5.456a12.868,12.868,0,0,1,3.457,5.613,10.1,10.1,0,0,1-.044,5.944,10.639,10.639,0,0,1-2.427,3.946,18.773,18.773,0,0,0-8.582-10.065A19.172,19.172,0,0,0,109.845,9.1,20.724,20.724,0,0,0,99.2,10.984,21.962,21.962,0,0,1,103.4,6.126,22.114,22.114,0,0,1,111.2,1.9a4,4,0,0,1,.885.944c.195.294,1.349,1.965.655,3.595A2.494,2.494,0,0,1,110.4,7.993a2.533,2.533,0,0,1-1.5-.523,1.851,1.851,0,0,1-.816-1.927,1.169,1.169,0,0,1,1.014-.85,1.2,1.2,0,0,1,.816.2.849.849,0,0,1,.375.545c.143.408.179.559.309.619s.331-.09.419-.291a1.259,1.259,0,0,0,.154-.746,1.382,1.382,0,0,0-.794-1.131,1.892,1.892,0,0,0-1.909.349,2.12,2.12,0,0,0-.672,2.212,2.808,2.808,0,0,0,1.827,1.738,3.024,3.024,0,0,0,2.548-.325,3.082,3.082,0,0,0,1.442-2.278,5.076,5.076,0,0,0-1.593-3.922l.056-.015a14.073,14.073,0,0,1,5.033.241" transform="translate(-28.539 0)" fill="#fff"/>
    <path id="パス_23" data-name="パス 23" d="M86.549,48.814Z" transform="translate(-29.069 -16.395)" fill="#fff"/>
    <path id="パス_24" data-name="パス 24" d="M.181,16.487A10.147,10.147,0,0,0,.925,18.7c.8,1.63,1.753,2.261,1.884,2,.063-.127-.1-.181-.361-.565-.794-1.172-.426-2.02-1.114-2.711A3.321,3.321,0,0,1,.671,15.34,13.373,13.373,0,0,1,3.907,5.927c1.213-1.5,3.661-4,9.406-4.823a21.289,21.289,0,0,1,6.046.061A17.427,17.427,0,0,0,9.372,4.454,14.13,14.13,0,0,0,4.1,12.479,10.188,10.188,0,0,0,5.382,19.7a9.44,9.44,0,0,0,1.777,2.166,17.009,17.009,0,0,0-.646,3.347,14.753,14.753,0,0,0,.135,4.615,14.454,14.454,0,0,0,1.34,3.592,12.832,12.832,0,0,0,10.749,6.57c1.992,0,3.466-.325,4.009-1.5a1.121,1.121,0,0,0-.032-.951c-.083-.172-.29-.4-.478-.365-.159.031-.151.329-.2.522-.117.478-.72.841-.945.969a4.238,4.238,0,0,1-2.376.434A11.411,11.411,0,0,1,8.167,32.652c-1.992-3.862-1.211-8.113-.528-10.381.124.1.245.195.365.286a7.718,7.718,0,0,0,1.725.992A13.357,13.357,0,0,0,11.4,29.561a9.654,9.654,0,0,0,4.417,4.213c1.14.46.436-.114.12-.212A9.044,9.044,0,0,1,11.6,29.2a12.183,12.183,0,0,1-1.448-5.488,6.973,6.973,0,0,0,1.63.391,2.531,2.531,0,0,0,1.955-.507,1.061,1.061,0,0,0,.29-.839c-.015-.178-.078-.387-.254-.42-.149-.028-.223.249-.347.387a2.029,2.029,0,0,1-.983.335,6.935,6.935,0,0,1-2.3-.167,13.124,13.124,0,0,1,.574-3.486,12.824,12.824,0,0,1,2.778-4.762,12.1,12.1,0,0,1,1.741-1.52,7.757,7.757,0,0,0-1.058,2.425,5.776,5.776,0,0,0,.474,4.163,11.277,11.277,0,0,0,.234,3.874c.826,3.471,3.146,6.652,7.636,6.819.212.008.43,0,.654-.013.037.068.071.129.1.179a9.4,9.4,0,0,0,3.412,3.351,8.479,8.479,0,0,0,2.7.974,11.394,11.394,0,0,0-1.411,6.566,9.556,9.556,0,0,0,.009,4.82,9.139,9.139,0,0,0,2.5,4.041,8.726,8.726,0,0,0,10.274.886c.057-.088-.215.007-.276.028-.278.1-.561.23-.995.354a10.674,10.674,0,0,1-3.449.474,7.774,7.774,0,0,1-4.571-1.613A8.338,8.338,0,0,1,28.2,42.7a9.655,9.655,0,0,0,10.056,6.791,8.139,8.139,0,0,0,6.931-5.181,6.755,6.755,0,0,0-.349-4.893,6.235,6.235,0,0,0-5.69-3.95,5.989,5.989,0,0,0-3.8,1.222,4.694,4.694,0,0,0-1.781,4.029,4.514,4.514,0,0,0,1.761,3.452,4.629,4.629,0,0,0,3.7.806,3.124,3.124,0,0,0,2.1-1.733,3.38,3.38,0,0,0,.252-1.846,2.907,2.907,0,0,0-2.188-2.424,2.656,2.656,0,0,0-2.868,1.563c-.294.693-.393,1.649-.153,1.622.219-.025.506-.592.846-.818a2.491,2.491,0,0,0,1.062-1.047c.147-.25.212-.588.637-.638,1.637-.192,2.089,1.7,1.975,2.436-.3,1.955-2.073,2.686-4.2,2.127a3.3,3.3,0,0,1-2.349-2.5,4.079,4.079,0,0,1,.8-3.459,5.849,5.849,0,0,1,3.064-2.046,5.371,5.371,0,0,1,5.678,1.854A6.553,6.553,0,0,1,44.3,44.51a8,8,0,0,1-8.972,4.507,8.27,8.27,0,0,1-5.563-4.308,9.544,9.544,0,0,1-.737-6.656A13.107,13.107,0,0,1,30.291,35c.245.017.494.029.758.031a7.569,7.569,0,0,0,2.245-.354c1.087-.4,1.5-.9,1.45-.94a3.9,3.9,0,0,1-1.47.731,8.648,8.648,0,0,1-2.761.165c.155-.245.323-.488.505-.724a12.1,12.1,0,0,1,2.71-2.641,8.73,8.73,0,0,1,2.746-1.351,1.214,1.214,0,0,1,.863.045c.176.135.1.506-.511,1.173a2.1,2.1,0,0,0-.135,2.854,1.955,1.955,0,0,0,1.651.654,1.634,1.634,0,0,0,1.524-1.28,1.353,1.353,0,0,0-.6-1.348c-.34-.222-.863-.275-.9-.174s.47.1.8.573a1.021,1.021,0,0,1,.024,1.023,1.039,1.039,0,0,1-1.322.373,1.243,1.243,0,0,1-.706-1.044c-.1-1.3,1.183-2.342,2.4-2.829a5.5,5.5,0,0,1,3.245-.133,9.431,9.431,0,0,1,2.831,1.085c.469.286.909.619,1.357.933a10.025,10.025,0,0,0,.836.592h0a2.019,2.019,0,0,0,.2.1l.058.025v0c.04.015.08.027.12.039l.327.135.341-1.31L48.2,31.02a17.385,17.385,0,0,1-3.987-4.66c-.454-.823-.973-1.72-1.589-2.69-.025-.043-.046-.084-.064-.121a2.437,2.437,0,0,1-.292-1.1A11.821,11.821,0,0,0,36.122,11.78l-.03-.017c-.22-.659-.4-1.255-.552-1.787-.711-2.459-1.947-6.073-4.5-8.241a7.223,7.223,0,0,0-8.632-.544C16.746-.213,5.046-.894.843,10.475a11.247,11.247,0,0,0-.662,6.012m34.4-6.636A19.809,19.809,0,0,0,23.75,1.569c-.128-.041-.264-.082-.4-.124A5.706,5.706,0,0,1,25.225.821c4.351-.449,6.594,2.673,7.932,5.294a25.227,25.227,0,0,1,1.421,3.736m6.9,12.114c-.068-.1-.135-.194-.205-.292a38.172,38.172,0,0,1-4.643-8.409,10.784,10.784,0,0,1,4.732,7.531c.037.323.076.751.116,1.171M23.874,30.316a6.871,6.871,0,0,0,4.362-2.264,8.567,8.567,0,0,0,.657-1.1,6.09,6.09,0,0,0-.448-5.852,6.232,6.232,0,0,0-1.715-1.66,7.236,7.236,0,0,1,1.969-.9,8.18,8.18,0,0,1,3.564-.233,12.084,12.084,0,0,1,4.761,1.771,4.171,4.171,0,0,0-2.4.474,4.009,4.009,0,0,0-2.105,3.029,2.912,2.912,0,0,0,1.352,2.694,2.229,2.229,0,0,0,2.5-.2,2.321,2.321,0,0,0,.808-1.308,1.5,1.5,0,0,0-.246-1.174,1.486,1.486,0,0,0-.743-.54,1.47,1.47,0,0,0-.957.041.957.957,0,0,0-.359.252.925.925,0,0,0-.218.759c.048.278.194.222.174.167a.623.623,0,0,1,.389-.8.974.974,0,0,1,.675-.04.961.961,0,0,1,.646,1,1.72,1.72,0,0,1-2.9,1.207,1.945,1.945,0,0,1-.558-1.585,2.954,2.954,0,0,1,.64-1.785,4.016,4.016,0,0,1,1.536-1.16,4.488,4.488,0,0,1,1.863-.357c2.114.086,3.567,1.706,4.48,3.025,1.088,1.71,2.288,3.9,2.716,4.794.106.222.225.413.186.512s-.145.127-.42.092c-.37-.047-.961-.244-1.685-.39a13.087,13.087,0,0,0-6.572.482,11.527,11.527,0,0,0-5.8,4.59c-.1.137-.241.353-.408.636a9.562,9.562,0,0,1-2.54-.9,8.322,8.322,0,0,1-2.762-2.562c-.128-.2-.281-.431-.441-.723m-.911-2.828a7.108,7.108,0,0,1-.078-.942,2.452,2.452,0,0,0,1.537-.191,2.144,2.144,0,0,0,1.314-1.963,2.417,2.417,0,0,0-.489-1.553c-.313-.385-.8-.642-.932-.418-.057.1-.044.223.254.646A1.837,1.837,0,0,1,22.9,25.95a8.625,8.625,0,0,1,.83-3.176,8.126,8.126,0,0,1,2.319-2.844l.163-.124a5.15,5.15,0,0,1,2.858,4.421,6.66,6.66,0,0,1-.41,2.488,4.537,4.537,0,0,1-1.586,2.02,5.741,5.741,0,0,1-3.421,1.13,8.846,8.846,0,0,1-.685-2.378m-.566-3.6a8.86,8.86,0,0,0-.284,1.858,3.4,3.4,0,0,1-.787-.485,3.146,3.146,0,0,1-1.13-2.711,3.476,3.476,0,0,1,2.283-2.89,4.277,4.277,0,0,1,2.665-.2A8.778,8.778,0,0,0,22.4,23.886M15.089,20.27a3.45,3.45,0,0,0,.4.358,3.727,3.727,0,0,0,3.977.084,2.849,2.849,0,0,0,1.172-1.743,2.935,2.935,0,0,0-.127-1.891,1.885,1.885,0,0,0-2.785-.84,1.44,1.44,0,0,0-.369,2.253.77.77,0,0,0,.339.1c.08,0,.092-.031.078-.05-.026-.034-.129.005-.254-.241a1.164,1.164,0,0,1,.131-1.156,1.36,1.36,0,0,1,1.041-.482c1.04,0,1.393.936,1.34,1.775A2.544,2.544,0,0,1,18.5,20.723a2.754,2.754,0,0,1-3.367-1.077c.029-.3.062-.531.084-.682a10.167,10.167,0,0,1,1.651-4.108,11.965,11.965,0,0,1,10.064-4.817,18.508,18.508,0,0,1,2.663.3h0c.179.035.36.072.543.112a18.368,18.368,0,0,1,5.215,1.992,35.427,35.427,0,0,0,3.477,7.24c.134.233.183.393-.139.2-.568-.343-1.255-.673-1.885-.981a12.711,12.711,0,0,0-6.94-1.538,3.021,3.021,0,0,0-.922-4.676,2.85,2.85,0,0,0-2.712.1,2.014,2.014,0,0,0-.831,1.055,1.947,1.947,0,0,0,.635,2.052,1.685,1.685,0,0,0,1.7.247.634.634,0,0,0,.42-.612c0-.068-.029-.1-.084-.085s-.1.124-.194.215a1.136,1.136,0,0,1-1.079.17,1.245,1.245,0,0,1-.82-.972,1.471,1.471,0,0,1,.7-1.46,2.207,2.207,0,0,1,1.881-.075A2.176,2.176,0,0,1,29.8,15.759a2.621,2.621,0,0,1-1.108,1.77,8.518,8.518,0,0,0-2.921,1.434,4.41,4.41,0,0,0-1.464-.287,4.285,4.285,0,0,0-4.539,3.6A3.623,3.623,0,0,0,21.339,25.9a4.4,4.4,0,0,0,.766.408,9,9,0,0,0,.807,3.551,10.074,10.074,0,0,1-1.972-.284A6.863,6.863,0,0,1,16.721,26.5a10.088,10.088,0,0,1-1.632-6.227m.215-6.128c.994-1.858,1.986-3.534,7.19-4.07a11.984,11.984,0,0,0-5.417,3.537,12.663,12.663,0,0,0-2.311,5.318,6.859,6.859,0,0,1,.538-4.784M7.8,21.76c.133-.4.252-.7.333-.893a18.058,18.058,0,0,1,6.747-8.1A13.01,13.01,0,0,0,9.728,22.786a5.362,5.362,0,0,1-.944-.374A5.882,5.882,0,0,1,7.8,21.76M21.772,1.649l.056.015a5.075,5.075,0,0,0-1.593,3.921,3.081,3.081,0,0,0,1.441,2.279,3.024,3.024,0,0,0,2.549.324A2.806,2.806,0,0,0,26.053,6.45a2.121,2.121,0,0,0-.673-2.212,1.892,1.892,0,0,0-1.909-.349,1.381,1.381,0,0,0-.794,1.13,1.255,1.255,0,0,0,.154.746c.089.2.3.345.419.291s.165-.211.308-.619a.849.849,0,0,1,.376-.544,1.2,1.2,0,0,1,.815-.2,1.171,1.171,0,0,1,1.014.85,1.848,1.848,0,0,1-.816,1.927,2.532,2.532,0,0,1-1.5.524,2.492,2.492,0,0,1-2.336-1.556,4,4,0,0,1,.655-3.6,4.019,4.019,0,0,1,.884-.944,22.119,22.119,0,0,1,7.8,4.229,21.947,21.947,0,0,1,4.194,4.857A20.714,20.714,0,0,0,24,9.1a19.2,19.2,0,0,0-8.1,2.174A18.781,18.781,0,0,0,7.328,21.339,10.649,10.649,0,0,1,4.9,17.392a10.108,10.108,0,0,1-.044-5.945A12.877,12.877,0,0,1,8.314,5.835c.161-.157.328-.309.5-.456a4.5,4.5,0,0,1,2.441-1.075,3.52,3.52,0,0,1,1.475.2A3.847,3.847,0,0,1,14.5,5.852a3.8,3.8,0,0,1,.623,2.9c-.3,2.2-2.163,3.567-4.351,2.644a2.337,2.337,0,0,1-1.2-1.016A1.938,1.938,0,0,1,10.029,8.1a1.531,1.531,0,0,1,2.393.254c.191.448.544,1.077.9,1.055.406-.025.369-.643.313-.93a2.226,2.226,0,0,0-2.569-1.538,2.754,2.754,0,0,0-1.8,1.2A2.724,2.724,0,0,0,9.333,11a3.39,3.39,0,0,0,3.341,1.4,3.917,3.917,0,0,0,2.983-3.11,4.492,4.492,0,0,0-.6-3.3,4.539,4.539,0,0,0-1.7-1.522,4.155,4.155,0,0,0-2.787-.317A20.257,20.257,0,0,1,16.738,1.89a14.042,14.042,0,0,1,5.033-.241" transform="translate(0 0)" fill="#fff"/>
    <path id="パス_25" data-name="パス 25" d="M72.018,48.814Z" transform="translate(-24.189 -16.395)" fill="#fff"/>
    <path id="パス_26" data-name="パス 26" d="M81.074,35.012c-.31.185-.76-.6-.775-.82a1.326,1.326,0,0,0-.015.754c.211.668,1.394.538,1.576-.085a1.23,1.23,0,0,0-.186-.968,1.841,1.841,0,0,0-1.85-.887,1.867,1.867,0,0,0-1.135,1.482l-.724-.193c-.327-.087-.628-1.109-.627-1.377a.675.675,0,0,1,.513-.688.553.553,0,0,1,.509.239,4.93,4.93,0,0,1,.167.712.507.507,0,0,0,.321-.431c-.022-.232,0-.582-.208-.741a.692.692,0,0,0-.307-.121,1.033,1.033,0,0,0-1.247.8,1.676,1.676,0,0,0-.016.8c.042.165.21.343.2.513-.009.226-.723.4-.963.552a3.354,3.354,0,0,0-1,.97c-.8,1.2-.518,2.425-.092,3.68.186.547.5,1.037.7,1.576a4.943,4.943,0,0,1,.287,1.684,16.5,16.5,0,0,1-.9,4.744c-.823,2.829.135,6.062,1.327,8.65.666,1.448,1.753,2.927,1.7,4.586a4.169,4.169,0,0,0-.054.912c.6-.294.543-1.358.547-1.9.008-.936-.1-1.868-.175-2.8a10.1,10.1,0,0,0-.772-3.014,12.883,12.883,0,0,1-1.085-4.879,5.52,5.52,0,0,1,.529-2.936,2.8,2.8,0,0,1,.557-.8c.385-.338.849-.073,1.176.255,1.344,1.35,1.455,3.267,1.489,5.055a36.271,36.271,0,0,1-.128,3.8q-.083.965-.217,1.926a3.97,3.97,0,0,1-.242,1.452,12.865,12.865,0,0,0,1.9-5.8,13.531,13.531,0,0,0-1.519-7.7,19.107,19.107,0,0,0-2.5-3.335c-.857-.982-2.179-2-1.921-3.441,0,0,.256-1.114,1.189-1.172A3.168,3.168,0,0,0,79.2,37.585a3.861,3.861,0,0,0,1.358,1.363s.262-.28-.527-1.607a3.583,3.583,0,0,0-.85-2.774s-.128-1,.746-1.162c.758-.143,1.691.779,1.218,1.531a.213.213,0,0,1-.069.076" transform="translate(-25.123 -10.703)" fill="#fff"/>
  </g>
</svg>
