<?xml version="1.0" encoding="UTF-8"?><svg id="_レイヤー_2" xmlns="http://www.w3.org/2000/svg" viewBox="0 0 169.04 50.75"><defs><style>.cls-1{fill:#9e9e9f;}.cls-2{fill:#c8c9ca;}</style></defs><g id="_レイヤー_1-2"><g><path class="cls-2" d="M97.14,49.03c-1.68-.4-6.27-2.13-6.27-5.47V7.2c0-3.34,4.58-5.08,6.27-5.47,1.89-.45,3.47-.5,4.03-1.1,.19-.21,.04-.67-.59-.62-.58,.05-2.31,.37-4.42,.54-2.52,.16-8.22,.36-11.65,.36s-9.13-.2-11.65-.36c-2.1-.17-3.83-.49-4.42-.54-.63-.05-.79,.41-.59,.62,.56,.6,2.15,.66,4.03,1.1,1.68,.4,6.27,2.13,6.27,5.47V43.56c0,3.34-4.58,5.08-6.27,5.47-1.89,.45-3.47,.5-4.03,1.1-.19,.21-.04,.67,.59,.62,.58-.05,2.31-.37,4.42-.54,2.52-.16,8.22-.36,11.65-.36s9.13,.2,11.65,.36c2.1,.17,3.83,.49,4.42,.54,.63,.05,.79-.41,.59-.62-.56-.6-2.15-.66-4.03-1.1Z"/><g><path class="cls-1" d="M44.72,28.85c-2.38-4.44-8.51-6.3-11.64-9.12-.48-.43-1.35-1.11-1.52-2.3-.17-1.13,.38-1.96,.54-2.19,.87-1.23,3.47-2.11,6.03-1.54,3.3,.73,3.62,2.98,3.62,3.56,0,.7,.28,.67,.32,.33,0-.08,.57-5.19,.56-5.27-.02-.19-.56,.02-1.12,.06-.61,.05-2.46-.12-4.31-.25-2.15-.16-2.77-.09-3.3-.05-1.88,.11-4.16,.78-5.4,2.31-2,2.47-2.17,5.33-.41,7.86,.45,.65,1.47,1.6,2.29,2.16,2.54,1.73,7.23,4.74,8.83,6.51,.46,.51,1.34,1.67,1.38,3.35,.05,2.02-1.1,3.46-1.56,3.92-1.99,1.99-7.75,2.75-11.19-.35-1.82-1.65-2.06-3.5-2.14-4.13-.11-.87-.12-2.15,.1-3.15,.28-1.28,.79-2.13,.91-2.32,.15-.23,.27-.36,.33-.43,.11-.12,.17-.21,.11-.25-.11-.06-.5,.32-.62,.46-1.03,1.21-1.42,2.71-1.42,2.71-.97,3.79,.42,6.48,.42,6.48,1.6,3.13,5.08,4.72,8.45,4.72,8.69,0,11.11-5.25,11.48-8.81,.22-2.15-.52-3.88-.73-4.27Z"/><path class="cls-1" d="M68.93,23.63c.27-.47,1.92-4.26,.44-7.3-1.12-2.3-2.91-3.04-3.44-3.34-2.86-1.59-7.31-.89-9.23-.52-.98,.19-5.37,.97-7.89,1.09h-1.28c-.1,0-.14,.17-.07,.27,.2,.31,.87,.17,1.54,.4,.61,.21,.95,.65,1.06,.91,.22,.51,.23,1.29,.23,1.56h0v18.47h0c0,.27,0,1.05-.23,1.56-.11,.26-.45,.7-1.06,.91-.68,.23-1.34,.09-1.54,.4-.07,.11-.03,.27,.07,.27h11c.1,0,.14-.17,.07-.27-.2-.31-.87-.17-1.54-.4-.61-.21-.95-.65-1.06-.91-.18-.42-.22-1-.22-1.35V14.71c0-.1,.03-.22,.14-.37,.4-.59,2.52-.68,4.09-.65,2.26,.04,3.23,1.46,3.73,2.57,.57,1.26,.78,2.77,.72,3.95-.17,3.2-2.6,6.11-5.53,5.27-.4-.12-1.05-.54-1.36-.92-.34-.43-.41-.53-.48-.47-.05,.04,0,.37,.05,.57,.04,.18,.26,.83,.76,1.41,.11,.13,.65,.8,1.83,1.19,2.49,.83,4.95,0,4.95,0,2.77-.88,3.9-3.01,4.26-3.64Z"/><path class="cls-1" d="M168.32,20.63c-1.55-4.48-5.11-6.57-5.99-7.05-.8-.44-3.13-1.68-6.23-1.5-1.24,.07-3.16,.18-4.87,1.62-1.71,1.43-2.17,3.17-2.27,3.84-.4,2.71,.5,3.64,.99,3.95,.19,.12,.36,.14,.4,.11,.05-.03-.07-.09-.16-.17-.24-.19-.44-.54-.56-1.46-.2-1.57,.52-2.94,.64-3.17,.94-1.78,2.37-2.42,2.68-2.57,2.21-1.1,4.29-.48,4.75-.32,1.84,.61,2.71,1.78,3.38,2.63,1.91,2.46,2.11,5,2.23,6.34,.24,2.58-.11,5.09-.72,7.29-.42,1.52-1.53,3.2-2.69,4.26-.12,.11-2.89,3.2-7.6,2.23-.6-.12-1.25-.3-1.91-.58-.77-.33-4.91-2.66-5.56-8.47-.4-3.55-.13-7.19,.69-10.06,.32-1.11,.87-2.16,1.3-2.82,.32-.49,.7-.85,1.01-1.15,.46-.44,.7-.55,.69-.66-.02-.19-1.9,.42-2.72,.85-2.98,1.55-5.89,4.07-6.69,9.31-.97,6.36,2.84,10.47,3.21,10.88,3.61,3.88,8.63,4.32,11.9,4.34,7.79,.03,10.97-3.5,12.45-5.51,2.39-3.26,3.04-8.18,1.66-12.16Z"/><path class="cls-1" d="M136.65,38.3h.27c.1,0,.14-.17,.07-.27-.2-.31-.87-.17-1.54-.4-.61-.21-.95-.65-1.06-.91-.18-.42-.22-1-.22-1.35V15.68c.04-1.03,.08-1.54,.2-1.87,.11-.32,.43-.77,1.04-.97,.68-.23,1.25-.26,1.45-.57,.07-.11,.01-.35-.21-.32-.21,.02-.83,.19-1.59,.28-.91,.08-3.22,.24-4.19,.29-3.51,.19-7.2,.27-8.52,1.07-.34,.2-1.01,.63-1.44,1.48-.1,.21-.56,1.36-.08,2.61,.35,.92,.88,1.25,1.17,1.45,.6,.43,1.71,.58,2.2,.37,.38-.17,.64-.47,.5-.56-.09-.05-.09,.15-.87,.05-.57-.07-1.48-.76-1.69-1.9-.01-.08-.26-1.2,.51-1.91,.95-.87,4.27-.9,6.03-.96v20.95h0c0,.27,0,1.05-.23,1.56-.11,.26-.45,.7-1.06,.91-.68,.23-1.34,.09-1.54,.4-.07,.11-.03,.27,.07,.27h10.73Z"/><path class="cls-1" d="M120.63,24.58c-.05-.5-.21-.95-.34-.85-.11,.09,.26,.71-.26,3.83-.4,2.34-1.45,3.9-1.75,4.33-2.05,2.96-5.04,3.98-6.09,4.28-1.02,.29-3.96,1.09-7.2-.32-.41-.18-3.21-1.44-4.87-4.49-1.16-2.13-1.24-4.18-1.32-6.24-.03-.8-.07-1.81,.16-3.12,.16-.93,.5-2.85,1.75-4.6,2.49-3.47,6.87-3.78,7.31-3.8,4.6-.21,6.96,2.18,8.06,4.02,.46,.77,.72,1.6,.79,2,.11,.61,.3,.55,.3,.37v-5.81c0-.15-.25-.3-.25-.3-4.37-2.19-11.07-2.41-15.79-.48-1.57,.64-6.48,2.88-7.78,8.35-1.77,7.43,2.47,11.73,2.87,12.16,1.43,1.57,3.05,2.58,4.86,3.27,4.44,1.68,8.93,1,9.68,.84,.89-.19,5.74-1.17,7.94-4.7,1.88-3.01,2.16-6.55,1.93-8.75Z"/><path class="cls-1" d="M23.2,30.68c-.2-.04-.19,.85-1.25,2.44-.62,.92-1.29,2.12-2.97,2.86-1.48,.66-3.69,.77-5.4,.8h-5.23v-10.38h5.46s.75,0,1.11,.06c.45,.07,1.02,.19,1.46,.53,1.31,1.01,1.31,2.18,1.34,2.49,.02,.19,.2,.26,.2,.05v-7.81c0-.2-.18-.13-.2,.05-.03,.31-.03,1.49-1.34,2.49-.44,.34-1.02,.46-1.46,.53-.36,.05-1.11,.06-1.11,.06h-5.46V14.32h2.64s.72,.03,1.01,.05c.42,.04,.73,.11,1.03,.27,.83,.44,1.25,1.26,1.37,1.52,.27,.57,.38,1.72,.39,1.88,.04,.63,.24,.46,.24,.26v-6.23c0-.2-.86,.55-3.04,.56H.11c-.1,0-.14,.17-.07,.27,.2,.31,.87,.17,1.54,.4,.61,.21,.95,.65,1.06,.91,.22,.51,.23,1.29,.23,1.56h0v19.4h0c0,.27,0,1.05-.23,1.56-.11,.26-.45,.7-1.06,.91-.68,.23-1.34,.09-1.54,.4-.07,.11-.03,.27,.07,.27H21.3s.16,0,.19-.09c.02-.08,1.3-4.95,1.51-5.9,.15-.68,.34-1.59,.2-1.62Z"/><path class="cls-1" d="M100.71,40.21c-5.63-2.62-9.95-6.63-12.54-12.32-1.86-4.08-2.86-8.46-4.41-12.65-.99-2.67-2.21-5.28-4.03-7.46-.58-.69-1.22-1.34-1.99-1.8,.86,1.64,1.13,3.54,1.03,5.38-.14,2.53-.95,4.9-1.75,7.29-.66,1.95-7.51,17.07-7.51,17.07-.28,.48-.54,.88-.74,1.08-.2,.2-.65,.61-1.25,.82-.68,.23-1.34,.09-1.54,.4-.07,.11-.03,.27,.07,.27h8.25c.1,0,.14-.17,.07-.27-.2-.31-.87-.14-1.52-.43-.45-.21-.95-.82-.64-1.8,.24-.77,1.17-3.1,1.17-3.11l1.33-3.02c2.38,0,4.76,.01,7.15-.03,.28,0,.57,0,.82,.11,.36,.17,.57,.54,.76,.88,3.2,5.71,8.43,10.22,14.48,12.68,5.62,2.29,13.9,2.27,17.97-3.11-7.5,3.58-15.17,0-15.17,0Zm-25.34-12.06l3.89-8.85c.28,.86,1.51,4.66,3.03,8.85h-6.93Z"/></g></g></g></svg>