<svg id="ESPACIO1" xmlns="http://www.w3.org/2000/svg" xmlns:xlink="http://www.w3.org/1999/xlink" width="134.209" height="100.968" viewBox="0 0 134.209 100.968">
  <defs>
    <clipPath id="clip-path">
      <rect id="長方形_1" data-name="長方形 1" width="134.209" height="100.968" fill="none"/>
    </clipPath>
  </defs>
  <g id="グループ_1" data-name="グループ 1" clip-path="url(#clip-path)">
    <path id="パス_1" data-name="パス 1" d="M102.334,131.991c-1.139-.268-4.239-1.436-4.239-3.692V103.768c0-2.256,3.1-3.424,4.239-3.692,1.278-.3,2.349-.337,2.729-.744.13-.14.024-.45-.4-.415-.395.032-1.563.25-2.986.366-1.705.107-5.557.245-7.878.245s-6.173-.138-7.878-.245c-1.423-.116-2.591-.333-2.986-.366-.425-.035-.531.275-.4.415.38.407,1.451.443,2.729.744,1.139.268,4.239,1.436,4.239,3.692V128.3c0,2.256-3.1,3.424-4.239,3.692-1.278.3-2.349.337-2.729.744-.13.14-.024.45.4.415.4-.032,1.563-.25,2.986-.366,1.705-.107,5.557-.245,7.878-.245s6.173.138,7.878.245c1.423.116,2.591.333,2.986.366.425.035.531-.275.4-.415-.38-.407-1.451-.443-2.729-.744" transform="translate(-26.693 -32.185)" fill="#bdbebf"/>
    <path id="パス_2" data-name="パス 2" d="M52.955,122.288c-1.608-2.993-5.755-4.253-7.876-6.149a2.592,2.592,0,0,1-1.031-1.553,2.05,2.05,0,0,1,.366-1.477,4.25,4.25,0,0,1,4.076-1.04c2.229.494,2.447,2.011,2.447,2.4,0,.47.189.451.216.225.006-.051.386-3.5.381-3.553-.011-.127-.376.01-.755.04-.413.033-1.663-.078-2.913-.172a12.792,12.792,0,0,0-2.234-.036,5.2,5.2,0,0,0-3.649,1.56,4.172,4.172,0,0,0-.279,5.3,7.072,7.072,0,0,0,1.552,1.461c1.715,1.168,4.889,3.194,5.97,4.391a3.52,3.52,0,0,1,.933,2.257,3.758,3.758,0,0,1-1.054,2.641c-1.349,1.345-5.245,1.857-7.568-.238a4.335,4.335,0,0,1-1.45-2.789,6.778,6.778,0,0,1,.068-2.126,5.164,5.164,0,0,1,.612-1.564,1.753,1.753,0,0,1,.226-.289c.075-.08.114-.145.074-.167-.076-.042-.339.214-.419.307a5.124,5.124,0,0,0-.959,1.828,6.591,6.591,0,0,0,.284,4.375,6.342,6.342,0,0,0,5.714,3.188c5.878,0,7.512-3.54,7.763-5.941a5.438,5.438,0,0,0-.5-2.881" transform="translate(-12.769 -36.099)" fill="#8e8e8f"/>
    <path id="パス_3" data-name="パス 3" d="M76.661,118.758c.182-.319,1.3-2.875.3-4.923a4.764,4.764,0,0,0-2.323-2.25c-1.935-1.072-4.942-.6-6.242-.351a49.083,49.083,0,0,1-5.338.732h-.862c-.068,0-.1.112-.05.184.137.211.586.113,1.045.27a1.22,1.22,0,0,1,.716.611,3.038,3.038,0,0,1,.153,1.051v12.459a3.038,3.038,0,0,1-.153,1.051,1.22,1.22,0,0,1-.716.611c-.459.156-.908.059-1.045.27-.047.072-.018.184.05.184h7.439c.068,0,.1-.112.049-.184-.137-.211-.585-.113-1.044-.27a1.22,1.22,0,0,1-.716-.611,2.693,2.693,0,0,1-.152-.912V112.745a.451.451,0,0,1,.093-.251c.271-.4,1.7-.46,2.765-.439a2.663,2.663,0,0,1,2.522,1.731,6.042,6.042,0,0,1,.486,2.663c-.118,2.157-1.757,4.123-3.742,3.557a2.247,2.247,0,0,1-.919-.62c-.232-.287-.28-.355-.324-.319s0,.251.031.382a2.567,2.567,0,0,0,.513.953,2.667,2.667,0,0,0,1.238.8,5.853,5.853,0,0,0,3.346,0,4.98,4.98,0,0,0,2.882-2.452" transform="translate(-20.104 -36.089)" fill="#8e8e8f"/>
    <path id="パス_4" data-name="パス 4" d="M173.507,116.752a8.858,8.858,0,0,0-4.053-4.758,7.834,7.834,0,0,0-4.215-1.011,5.233,5.233,0,0,0-3.3,1.094,4.363,4.363,0,0,0-1.537,2.589c-.269,1.826.335,2.458.67,2.667a.354.354,0,0,0,.273.073c.037-.024-.047-.063-.108-.113-.16-.131-.3-.365-.379-.987a3.769,3.769,0,0,1,.432-2.137,3.916,3.916,0,0,1,1.811-1.736,4.336,4.336,0,0,1,3.215-.219,4.515,4.515,0,0,1,2.283,1.778,7.633,7.633,0,0,1,1.508,4.275,13.813,13.813,0,0,1-.486,4.918,6.6,6.6,0,0,1-1.821,2.874,5.558,5.558,0,0,1-5.14,1.506,6.523,6.523,0,0,1-1.289-.393,7.093,7.093,0,0,1-3.761-5.711,18.275,18.275,0,0,1,.464-6.785,7.286,7.286,0,0,1,.879-1.9,4.411,4.411,0,0,1,.68-.774c.314-.3.476-.368.468-.443a4.922,4.922,0,0,0-1.837.574,7.948,7.948,0,0,0-4.525,6.281,8.969,8.969,0,0,0,2.175,7.336c2.44,2.621,5.838,2.918,8.048,2.928,5.27.023,7.42-2.359,8.42-3.717a9.3,9.3,0,0,0,1.121-8.207" transform="translate(-49.721 -36.108)" fill="#8e8e8f"/>
    <path id="パス_5" data-name="パス 5" d="M146.149,128.64h.181c.067,0,.1-.112.049-.184-.137-.211-.585-.113-1.045-.269a1.219,1.219,0,0,1-.716-.611,2.692,2.692,0,0,1-.152-.911V113.381a4.72,4.72,0,0,1,.138-1.262,1.125,1.125,0,0,1,.7-.656c.459-.156.845-.175.981-.386a.144.144,0,0,0-.144-.216c-.142.017-.563.13-1.075.19-.613.055-2.177.16-2.834.2-2.373.13-4.871.183-5.764.718a2.431,2.431,0,0,0-.973,1,2.348,2.348,0,0,0-.054,1.761,1.942,1.942,0,0,0,2.279,1.226c.256-.112.432-.319.337-.377-.058-.036-.058.1-.59.032a1.574,1.574,0,0,1-1.14-1.279,1.43,1.43,0,0,1,.347-1.291c.641-.59,2.888-.606,4.076-.645v14.133a3.023,3.023,0,0,1-.154,1.051,1.224,1.224,0,0,1-.716.611c-.46.156-.908.058-1.045.269-.047.072-.018.184.049.184h7.26Z" transform="translate(-43.786 -36.072)" fill="#8e8e8f"/>
    <path id="パス_6" data-name="パス 6" d="M126.355,119.433c-.037-.339-.145-.642-.233-.57a10.415,10.415,0,0,1-.179,2.584,7.321,7.321,0,0,1-1.181,2.923,7.589,7.589,0,0,1-4.118,2.887,6.821,6.821,0,0,1-8.164-3.244,8.917,8.917,0,0,1-.895-4.206,9.223,9.223,0,0,1,.108-2.1,7.3,7.3,0,0,1,1.182-3.1,6.875,6.875,0,0,1,4.942-2.567,5.668,5.668,0,0,1,5.454,2.709,4.416,4.416,0,0,1,.535,1.347c.072.414.206.374.206.248v-3.918c0-.1-.172-.2-.172-.2a14.173,14.173,0,0,0-10.678-.324c-1.059.432-4.381,1.942-5.264,5.632a8.685,8.685,0,0,0,1.942,8.2,8.324,8.324,0,0,0,3.29,2.206,13.128,13.128,0,0,0,6.549.57c.6-.127,3.88-.791,5.371-3.173a9.692,9.692,0,0,0,1.307-5.9" transform="translate(-34.824 -36.119)" fill="#8e8e8f"/>
    <path id="パス_7" data-name="パス 7" d="M30.387,123.53c-.132-.028-.126.575-.847,1.644a4.5,4.5,0,0,1-2.008,1.931,10.329,10.329,0,0,1-3.653.539H20.343v-7h3.694s.507,0,.748.04a2.172,2.172,0,0,1,.99.36,2.129,2.129,0,0,1,.906,1.683c.01.125.135.173.135.037v-5.269c0-.136-.124-.088-.135.036a2.131,2.131,0,0,1-.906,1.683,2.162,2.162,0,0,1-.99.36,7.4,7.4,0,0,1-.748.041H20.343v-7.124h1.786s.487.018.683.034a1.717,1.717,0,0,1,.694.182,2.262,2.262,0,0,1,.925,1.027A4.687,4.687,0,0,1,24.7,115c.026.424.162.313.162.177v-4.2a8.168,8.168,0,0,1-2.055.381H14.765c-.068,0-.1.111-.049.184.137.211.585.113,1.045.269a1.221,1.221,0,0,1,.716.611,3.018,3.018,0,0,1,.153,1.051h0v13.084h0a3.022,3.022,0,0,1-.153,1.051,1.221,1.221,0,0,1-.716.611c-.46.156-.908.059-1.045.27-.047.072-.018.184.049.184H29.1s.112.006.132-.061.876-3.341,1.021-3.982c.1-.459.233-1.076.135-1.1" transform="translate(-4.755 -36.101)" fill="#8e8e8f"/>
    <path id="パス_8" data-name="パス 8" d="M104.146,127.99a16.68,16.68,0,0,1-8.484-8.309c-1.257-2.751-1.932-5.706-2.98-8.533a16.908,16.908,0,0,0-2.728-5.035,5.367,5.367,0,0,0-1.346-1.214,6.992,6.992,0,0,1,.7,3.631,18.521,18.521,0,0,1-1.184,4.915c-.445,1.316-5.081,11.517-5.081,11.517a3.96,3.96,0,0,1-.5.731,2.292,2.292,0,0,1-.847.553c-.459.156-.908.058-1.044.269-.047.073-.018.184.049.184h5.58c.068,0,.1-.111.049-.184-.137-.211-.588-.091-1.03-.291a.944.944,0,0,1-.434-1.212c.162-.518.793-2.093.795-2.1l.9-2.035c1.612,0,3.223.008,4.835-.018a1.251,1.251,0,0,1,.553.075,1.286,1.286,0,0,1,.513.6,19.87,19.87,0,0,0,9.8,8.555c3.8,1.544,9.4,1.529,12.153-2.1-5.072,2.414-10.259,0-10.26,0m-17.138-8.137,2.632-5.968c.187.577,1.023,3.143,2.053,5.968Z" transform="translate(-26.092 -34.133)" fill="#8e8e8f"/>
    <path id="パス_9" data-name="パス 9" d="M167.546,13.315c-5.357-14.452-20.268-13.586-27.485-11.8a9.225,9.225,0,0,0-11,.692c-3.251,2.754-4.827,7.349-5.732,10.475-.2.676-.422,1.434-.7,2.271l-.039.022a15.015,15.015,0,0,0-7.827,13.564,3.076,3.076,0,0,1-.373,1.4c-.022.047-.05.1-.081.153-.786,1.233-1.447,2.374-2.026,3.42a22.094,22.094,0,0,1-5.08,5.923l-.871.488.436,1.664.415-.172c.052-.014.1-.03.153-.049v0l.076-.03v0a2.483,2.483,0,0,0,.256-.123h0a12.932,12.932,0,0,0,1.065-.753c.572-.4,1.132-.823,1.729-1.185a12.031,12.031,0,0,1,3.608-1.38,7.018,7.018,0,0,1,4.135.169c1.552.619,3.187,1.95,3.061,3.6a1.58,1.58,0,0,1-.9,1.327,1.329,1.329,0,0,1-1.686-.474,1.3,1.3,0,0,1,.032-1.3c.419-.6,1.056-.606,1.017-.729s-.709-.061-1.141.221a1.715,1.715,0,0,0-.769,1.713,2.082,2.082,0,0,0,1.941,1.628,2.5,2.5,0,0,0,2.1-.832,2.665,2.665,0,0,0-.172-3.629c-.785-.847-.877-1.32-.652-1.49a1.554,1.554,0,0,1,1.1-.058,11.131,11.131,0,0,1,3.5,1.718,15.4,15.4,0,0,1,3.455,3.356c.233.3.446.609.644.92a11.054,11.054,0,0,1-3.519-.209,4.975,4.975,0,0,1-1.873-.93c-.065.051.462.681,1.846,1.2a9.677,9.677,0,0,0,2.861.449c.337,0,.655-.017.967-.038a16.678,16.678,0,0,1,1.611,3.876,12.108,12.108,0,0,1-.939,8.461c-.344.671-2.583,4.7-7.09,5.475a10.2,10.2,0,0,1-11.433-5.729c-.946-2.219-1.211-5.693.783-8.192a6.854,6.854,0,0,1,7.236-2.357,7.447,7.447,0,0,1,3.9,2.6,5.169,5.169,0,0,1,1.023,4.4A4.2,4.2,0,0,1,122.12,56.2c-2.708.711-4.963-.219-5.349-2.7-.146-.937.43-3.34,2.516-3.1.543.063.624.494.812.811a3.169,3.169,0,0,0,1.355,1.332c.432.287.8,1.007,1.078,1.039.306.034.18-1.181-.2-2.061a3.386,3.386,0,0,0-3.654-1.987,3.7,3.7,0,0,0-2.788,3.081,4.287,4.287,0,0,0,.321,2.347,3.979,3.979,0,0,0,2.676,2.2,5.91,5.91,0,0,0,4.709-1.025,5.732,5.732,0,0,0,2.245-4.387,5.96,5.96,0,0,0-2.271-5.121,7.651,7.651,0,0,0-4.839-1.554,7.948,7.948,0,0,0-7.251,5.02,8.571,8.571,0,0,0-.444,6.221,10.363,10.363,0,0,0,8.833,6.585c7.142.748,11.862-4.905,12.815-8.632a10.586,10.586,0,0,1-4.169,9.857,9.924,9.924,0,0,1-5.826,2.051,13.654,13.654,0,0,1-4.4-.6c-.554-.158-.913-.327-1.267-.449-.078-.028-.425-.148-.352-.036a11.142,11.142,0,0,0,13.093-1.125,11.623,11.623,0,0,0,3.18-5.137,12.123,12.123,0,0,0,.012-6.127,14.445,14.445,0,0,0-1.8-8.347,10.817,10.817,0,0,0,3.446-1.238,11.963,11.963,0,0,0,4.349-4.26c.037-.063.081-.141.128-.227a8.248,8.248,0,0,0,.833.016c5.722-.211,8.679-4.254,9.732-8.667a14.284,14.284,0,0,0,.3-4.923,7.324,7.324,0,0,0,.6-5.292,9.872,9.872,0,0,0-1.348-3.083,15.392,15.392,0,0,1,2.218,1.932,16.287,16.287,0,0,1,3.541,6.053A16.643,16.643,0,0,1,155.7,29.1a8.85,8.85,0,0,1-2.932.213,2.579,2.579,0,0,1-1.252-.427c-.158-.174-.253-.526-.443-.49-.223.042-.3.307-.323.534a1.342,1.342,0,0,0,.37,1.066,3.225,3.225,0,0,0,2.49.645,8.888,8.888,0,0,0,2.079-.5,15.465,15.465,0,0,1-1.845,6.976c-1.982,3.745-4.691,5.282-5.533,5.541-.4.125-1.3.854.152.27a12.29,12.29,0,0,0,5.629-5.355,16.946,16.946,0,0,0,2.133-7.641,9.863,9.863,0,0,0,2.2-1.262q.228-.174.464-.363c.871,2.882,1.865,8.286-.673,13.195a14.544,14.544,0,0,1-13.444,8.19,5.412,5.412,0,0,1-3.028-.551c-.287-.163-1.055-.624-1.2-1.231-.061-.246-.05-.624-.253-.663-.239-.047-.5.244-.608.463a1.415,1.415,0,0,0-.041,1.209c.693,1.494,2.57,1.907,5.109,1.907a16.362,16.362,0,0,0,13.7-8.35,18.372,18.372,0,0,0,1.707-4.566,18.7,18.7,0,0,0,.172-5.866,21.558,21.558,0,0,0-.824-4.255,12,12,0,0,0,2.264-2.752,12.917,12.917,0,0,0,1.629-9.175c-1.111-5.616-5.464-9.281-6.714-10.2A22.257,22.257,0,0,0,143.95,1.48a27.241,27.241,0,0,1,7.7-.078c7.321,1.044,10.441,4.228,11.987,6.131A16.972,16.972,0,0,1,167.765,19.5a4.22,4.22,0,0,1-.845,2.642c-.877.877-.407,1.955-1.42,3.446-.331.488-.539.557-.459.718.167.338,1.379-.465,2.4-2.537a12.828,12.828,0,0,0,.948-2.812,14.264,14.264,0,0,0-.843-7.642M126.365,7.773c1.7-3.332,4.563-7.3,10.108-6.729a7.293,7.293,0,0,1,2.392.794c-.177.052-.35.1-.513.157a25.23,25.23,0,0,0-13.8,10.527,31.783,31.783,0,0,1,1.811-4.749M115.9,26.432a13.7,13.7,0,0,1,6.031-9.572,48.522,48.522,0,0,1-5.918,10.689c-.089.125-.175.248-.262.372.052-.534.1-1.079.149-1.489m21.728,13.022a10.6,10.6,0,0,1-3.518,3.256,12.251,12.251,0,0,1-3.237,1.147c-.215-.36-.4-.635-.521-.809a14.692,14.692,0,0,0-7.393-5.835,16.72,16.72,0,0,0-8.374-.613c-.923.186-1.677.436-2.147.5-.35.045-.49,0-.536-.116s.1-.368.237-.65c.546-1.14,2.074-3.92,3.461-6.094,1.163-1.676,3.015-3.736,5.71-3.845a5.739,5.739,0,0,1,2.375.454,5.106,5.106,0,0,1,1.957,1.473,3.748,3.748,0,0,1,.815,2.27,2.464,2.464,0,0,1-.71,2.014,2.193,2.193,0,0,1-3.7-1.534,1.22,1.22,0,0,1,.822-1.277,1.249,1.249,0,0,1,.861.051.791.791,0,0,1,.5,1.017c-.026.069.159.141.221-.212a1.174,1.174,0,0,0-.277-.965,1.214,1.214,0,0,0-.457-.32,1.877,1.877,0,0,0-1.22-.051,1.873,1.873,0,0,0-1.259,2.179,2.958,2.958,0,0,0,1.029,1.662,2.849,2.849,0,0,0,3.19.25,3.7,3.7,0,0,0,1.723-3.425,5.1,5.1,0,0,0-2.683-3.85,5.332,5.332,0,0,0-3.059-.6,15.422,15.422,0,0,1,6.066-2.251,10.468,10.468,0,0,1,4.543.3,9.272,9.272,0,0,1,2.51,1.145,7.886,7.886,0,0,0-2.187,2.11,7.721,7.721,0,0,0-.571,7.439,11,11,0,0,0,.837,1.4c1.023,1.459,3.353,2.534,5.559,2.878-.2.37-.4.669-.563.919m.85-1.492a7.335,7.335,0,0,1-4.36-1.436,5.781,5.781,0,0,1-2.02-2.569,8.42,8.42,0,0,1-.524-3.161,6.54,6.54,0,0,1,3.642-5.62l.208.157a10.34,10.34,0,0,1,2.955,3.615,10.909,10.909,0,0,1,1.056,4.037,2.381,2.381,0,0,1-1.46-.35,2.35,2.35,0,0,1-.672-3.312c.381-.538.4-.694.325-.821-.165-.285-.788.042-1.188.531a3.061,3.061,0,0,0-.622,1.974A2.72,2.72,0,0,0,137.5,33.5a3.136,3.136,0,0,0,1.959.242,8.94,8.94,0,0,1-.1,1.2,11.189,11.189,0,0,1-.873,3.022m-1.906-13.231a5.459,5.459,0,0,1,3.4.254,4.422,4.422,0,0,1,2.91,3.674,3.991,3.991,0,0,1-1.441,3.445,4.331,4.331,0,0,1-1,.617,11.363,11.363,0,0,0-.363-2.362,11.165,11.165,0,0,0-3.5-5.629m10.735,8.949a8.75,8.75,0,0,1-5.377,3.92,12.879,12.879,0,0,1-2.513.36,11.406,11.406,0,0,0,1.028-4.514,5.623,5.623,0,0,0,.976-.519,4.6,4.6,0,0,0,2-4.61,5.457,5.457,0,0,0-5.786-4.578,5.637,5.637,0,0,0-1.865.364,10.85,10.85,0,0,0-3.721-1.823,3.33,3.33,0,0,1-1.412-2.25,2.762,2.762,0,0,1,1.575-3.1,2.822,2.822,0,0,1,2.4.1,1.868,1.868,0,0,1,.885,1.855,1.583,1.583,0,0,1-1.045,1.237,1.451,1.451,0,0,1-1.375-.217c-.123-.115-.185-.251-.246-.272s-.107.022-.108.107a.809.809,0,0,0,.538.778,2.151,2.151,0,0,0,2.17-.314,2.468,2.468,0,0,0,.808-2.608,2.566,2.566,0,0,0-1.06-1.342,3.639,3.639,0,0,0-3.456-.126c-2.943,1.432-2.252,4.678-1.176,5.944a16.236,16.236,0,0,0-8.845,1.955c-.8.391-1.679.811-2.4,1.247-.41.248-.349.045-.178-.252a44.912,44.912,0,0,0,4.432-9.2,23.449,23.449,0,0,1,6.647-2.532c.233-.051.463-.1.692-.142h0a23.768,23.768,0,0,1,3.393-.38c4.1-.1,9.6,1.475,12.826,6.123a12.908,12.908,0,0,1,2.1,5.222c.027.192.07.49.106.868a3.516,3.516,0,0,1-4.291,1.369,3.232,3.232,0,0,1-1.954-2.906c-.068-1.067.381-2.257,1.707-2.257a1.735,1.735,0,0,1,1.326.613,1.478,1.478,0,0,1,.167,1.469c-.16.313-.291.264-.324.306-.018.024,0,.065.1.064a1,1,0,0,0,.433-.128,1.828,1.828,0,0,0-.47-2.864,2.4,2.4,0,0,0-3.55,1.067,3.731,3.731,0,0,0-.162,2.405,3.62,3.62,0,0,0,1.493,2.214,4.76,4.76,0,0,0,5.069-.105,4.423,4.423,0,0,0,.514-.455,12.8,12.8,0,0,1-2.08,7.915m2.492-9.623a16.091,16.091,0,0,0-2.945-6.76,15.273,15.273,0,0,0-6.905-4.5c6.633.682,7.9,2.812,9.163,5.174a8.7,8.7,0,0,1,.687,6.081m7.621,4.43a6.781,6.781,0,0,1-1.2.476,16.526,16.526,0,0,0-6.568-12.739,22.969,22.969,0,0,1,8.6,10.3c.1.245.255.632.424,1.134a7.478,7.478,0,0,1-1.252.828M147.289,2.4a25.869,25.869,0,0,1,7.866,2.867,5.311,5.311,0,0,0-3.552.4,5.784,5.784,0,0,0-2.171,1.934,5.693,5.693,0,0,0-.762,4.2,4.983,4.983,0,0,0,3.8,3.953,4.326,4.326,0,0,0,4.258-1.78,3.454,3.454,0,0,0,.086-3.631,3.509,3.509,0,0,0-2.3-1.522,2.835,2.835,0,0,0-3.273,1.956c-.07.364-.118,1.15.4,1.181.455.028.9-.772,1.148-1.341a1.953,1.953,0,0,1,3.049-.324,2.46,2.46,0,0,1,.588,2.9,2.977,2.977,0,0,1-1.535,1.292c-2.788,1.173-5.163-.569-5.544-3.361a4.823,4.823,0,0,1,.793-3.689A4.909,4.909,0,0,1,152.4,5.726a4.513,4.513,0,0,1,1.879-.254,5.747,5.747,0,0,1,3.112,1.366c.219.186.432.378.636.579a16.359,16.359,0,0,1,4.407,7.135,12.816,12.816,0,0,1-.056,7.556,13.536,13.536,0,0,1-3.092,5.016A23.9,23.9,0,0,0,148.345,14.33a24.5,24.5,0,0,0-10.316-2.764,26.47,26.47,0,0,0-13.563,2.4,27.928,27.928,0,0,1,5.345-6.174,28.2,28.2,0,0,1,9.94-5.376,5.1,5.1,0,0,1,1.128,1.2c.248.373,1.719,2.5.835,4.57a3.176,3.176,0,0,1-2.977,1.978,3.231,3.231,0,0,1-1.911-.666,2.348,2.348,0,0,1-1.04-2.45,1.49,1.49,0,0,1,1.292-1.081,1.531,1.531,0,0,1,1.04.256,1.077,1.077,0,0,1,.478.692c.183.519.228.711.394.787.15.069.421-.114.534-.37a1.6,1.6,0,0,0,.2-.949,1.756,1.756,0,0,0-1.011-1.437,2.416,2.416,0,0,0-2.433.444,2.69,2.69,0,0,0-.856,2.812,3.571,3.571,0,0,0,2.328,2.209A3.856,3.856,0,0,0,140.994,10a3.914,3.914,0,0,0,1.838-2.9,6.444,6.444,0,0,0-2.03-4.984l.072-.02c1.715-.421,4.308-.062,6.415.306" transform="translate(-34.41 0)" fill="#8e8e8f"/>
    <path id="パス_10" data-name="パス 10" d="M108.3,61.083Z" transform="translate(-35.049 -19.875)" fill="#8e8e8f"/>
    <path id="パス_11" data-name="パス 11" d="M.23,20.957a12.838,12.838,0,0,0,.948,2.812c1.022,2.072,2.234,2.875,2.4,2.537.08-.162-.128-.231-.459-.719-1.013-1.49-.543-2.568-1.42-3.445A4.225,4.225,0,0,1,.853,19.5,16.978,16.978,0,0,1,4.978,7.533C6.523,5.63,9.644,2.447,16.965,1.4a27.242,27.242,0,0,1,7.7.078A22.257,22.257,0,0,0,11.943,5.662c-1.251.92-5.6,4.584-6.714,10.2a12.923,12.923,0,0,0,1.629,9.175A12,12,0,0,0,9.122,27.79,21.464,21.464,0,0,0,8.3,32.044a18.681,18.681,0,0,0,.172,5.866,18.344,18.344,0,0,0,1.707,4.566,16.36,16.36,0,0,0,13.7,8.35c2.539,0,4.417-.412,5.11-1.906a1.417,1.417,0,0,0-.041-1.21c-.106-.219-.369-.509-.609-.463-.2.04-.192.418-.252.664-.15.606-.918,1.069-1.205,1.231a5.41,5.41,0,0,1-3.027.551A14.546,14.546,0,0,1,10.407,41.5c-2.538-4.909-1.544-10.313-.672-13.2q.235.19.464.364a9.848,9.848,0,0,0,2.2,1.262,16.94,16.94,0,0,0,2.133,7.64,12.286,12.286,0,0,0,5.629,5.356c1.454.584.555-.145.152-.27-.841-.26-3.55-1.8-5.532-5.542a15.461,15.461,0,0,1-1.845-6.976,8.865,8.865,0,0,0,2.078.5,3.229,3.229,0,0,0,2.491-.645,1.345,1.345,0,0,0,.37-1.067c-.019-.226-.1-.491-.323-.533-.189-.036-.284.316-.442.49a2.589,2.589,0,0,1-1.253.427,8.852,8.852,0,0,1-2.932-.213,16.642,16.642,0,0,1,.732-4.431A16.3,16.3,0,0,1,17.2,18.617a15.429,15.429,0,0,1,2.218-1.932,9.856,9.856,0,0,0-1.347,3.083,7.322,7.322,0,0,0,.6,5.292,14.287,14.287,0,0,0,.3,4.924c1.052,4.413,4.01,8.456,9.731,8.667a8.244,8.244,0,0,0,.833-.016c.047.086.091.164.129.227a11.954,11.954,0,0,0,4.348,4.26,10.809,10.809,0,0,0,3.446,1.239,14.45,14.45,0,0,0-1.8,8.346,12.111,12.111,0,0,0,.012,6.128,11.622,11.622,0,0,0,3.179,5.137A11.144,11.144,0,0,0,51.943,65.1c.073-.112-.273.009-.352.036-.354.123-.714.292-1.267.45a13.657,13.657,0,0,1-4.4.6A9.927,9.927,0,0,1,40.1,64.134a10.587,10.587,0,0,1-4.169-9.857c.952,3.727,5.671,9.38,12.815,8.632a10.363,10.363,0,0,0,8.833-6.585,8.57,8.57,0,0,0-.444-6.221,7.947,7.947,0,0,0-7.251-5.02,7.649,7.649,0,0,0-4.84,1.554,5.962,5.962,0,0,0-2.271,5.121,5.73,5.73,0,0,0,2.245,4.386,5.908,5.908,0,0,0,4.709,1.025,3.979,3.979,0,0,0,2.676-2.2,4.284,4.284,0,0,0,.321-2.346,3.7,3.7,0,0,0-2.787-3.081,3.385,3.385,0,0,0-3.654,1.987c-.375.88-.5,2.1-.2,2.062.279-.032.646-.752,1.078-1.039a3.161,3.161,0,0,0,1.355-1.332c.188-.317.269-.747.812-.811,2.086-.244,2.662,2.159,2.517,3.1-.386,2.484-2.642,3.414-5.35,2.7a4.2,4.2,0,0,1-2.993-3.179,5.176,5.176,0,0,1,1.023-4.4,7.451,7.451,0,0,1,3.905-2.6,6.855,6.855,0,0,1,7.236,2.357c1.993,2.5,1.729,5.972.783,8.192a10.2,10.2,0,0,1-11.433,5.729c-4.507-.772-6.746-4.8-7.09-5.475a12.1,12.1,0,0,1-.939-8.461A16.642,16.642,0,0,1,38.6,44.494c.312.022.63.036.967.038a9.676,9.676,0,0,0,2.86-.449c1.385-.514,1.911-1.145,1.847-1.2a4.976,4.976,0,0,1-1.873.929,11.034,11.034,0,0,1-3.519.21c.2-.311.411-.621.643-.921a15.446,15.446,0,0,1,3.455-3.356,11.148,11.148,0,0,1,3.5-1.717,1.55,1.55,0,0,1,1.1.058c.225.171.133.643-.651,1.49a2.664,2.664,0,0,0-.172,3.629,2.5,2.5,0,0,0,2.1.832A2.082,2.082,0,0,0,50.8,42.414a1.715,1.715,0,0,0-.77-1.713c-.432-.282-1.1-.35-1.14-.221s.6.126,1.017.729a1.293,1.293,0,0,1,.032,1.3,1.328,1.328,0,0,1-1.686.474,1.58,1.58,0,0,1-.9-1.327c-.126-1.647,1.508-2.978,3.061-3.6a7.021,7.021,0,0,1,4.135-.169,12.031,12.031,0,0,1,3.608,1.38c.6.362,1.157.786,1.729,1.185a13.037,13.037,0,0,0,1.065.753h0a2.428,2.428,0,0,0,.257.123l.075.032v0c.05.018.1.035.153.049l.415.172.436-1.664-.871-.488a22.1,22.1,0,0,1-5.081-5.923c-.579-1.046-1.24-2.186-2.026-3.42-.03-.055-.058-.107-.081-.153a3.073,3.073,0,0,1-.372-1.4,15.017,15.017,0,0,0-7.828-13.564l-.039-.022c-.281-.838-.507-1.6-.7-2.271-.906-3.125-2.48-7.72-5.732-10.475a9.224,9.224,0,0,0-11-.692C21.341-.271,6.43-1.137,1.073,13.315A14.265,14.265,0,0,0,.23,20.957m43.835-8.435a25.236,25.236,0,0,0-13.8-10.527c-.163-.052-.335-.1-.513-.157a7.3,7.3,0,0,1,2.393-.795c5.544-.571,8.4,3.4,10.108,6.729a31.885,31.885,0,0,1,1.811,4.749m8.8,15.4c-.087-.123-.172-.246-.262-.371a48.538,48.538,0,0,1-5.918-10.69,13.707,13.707,0,0,1,6.031,9.573c.047.41.1.955.148,1.488M30.425,38.535c2.206-.344,4.536-1.419,5.559-2.878a10.965,10.965,0,0,0,.836-1.4,7.721,7.721,0,0,0-.571-7.44,7.9,7.9,0,0,0-2.186-2.11,9.278,9.278,0,0,1,2.51-1.145,10.464,10.464,0,0,1,4.542-.3,15.417,15.417,0,0,1,6.066,2.251,5.336,5.336,0,0,0-3.059.6,5.1,5.1,0,0,0-2.682,3.851A3.7,3.7,0,0,0,43.163,33.4a2.849,2.849,0,0,0,3.19-.25,2.959,2.959,0,0,0,1.029-1.662,1.873,1.873,0,0,0-1.259-2.179,1.877,1.877,0,0,0-1.22.051,1.22,1.22,0,0,0-.457.32,1.174,1.174,0,0,0-.277.965c.062.353.246.281.221.212a.791.791,0,0,1,.5-1.017,1.247,1.247,0,0,1,.86-.051,1.222,1.222,0,0,1,.823,1.278,2.193,2.193,0,0,1-3.7,1.534,2.465,2.465,0,0,1-.711-2.014,3.757,3.757,0,0,1,.815-2.27,5.113,5.113,0,0,1,1.957-1.473,5.725,5.725,0,0,1,2.375-.454c2.695.109,4.547,2.17,5.71,3.845,1.387,2.174,2.914,4.954,3.46,6.094.135.283.288.526.237.651s-.185.161-.536.116c-.471-.06-1.224-.31-2.147-.5a16.72,16.72,0,0,0-8.374.613,14.686,14.686,0,0,0-7.392,5.835c-.122.173-.307.449-.521.808a12.231,12.231,0,0,1-3.238-1.147,10.6,10.6,0,0,1-3.518-3.255c-.164-.25-.359-.548-.562-.919m-1.161-3.6a9.037,9.037,0,0,1-.1-1.2,3.131,3.131,0,0,0,1.959-.243A2.721,2.721,0,0,0,32.8,31.007a3.067,3.067,0,0,0-.622-1.974c-.4-.489-1.023-.816-1.188-.531-.074.127-.056.283.325.821a2.349,2.349,0,0,1-.672,3.312,2.382,2.382,0,0,1-1.461.35,10.908,10.908,0,0,1,1.057-4.037,10.342,10.342,0,0,1,2.954-3.615c.071-.055.139-.105.208-.157a6.541,6.541,0,0,1,3.643,5.62,8.434,8.434,0,0,1-.524,3.161,5.776,5.776,0,0,1-2.02,2.569,7.332,7.332,0,0,1-4.359,1.436,11.188,11.188,0,0,1-.873-3.022m-.721-4.579a11.317,11.317,0,0,0-.363,2.362,4.35,4.35,0,0,1-1-.617,3.993,3.993,0,0,1-1.441-3.445,4.423,4.423,0,0,1,2.91-3.674,5.458,5.458,0,0,1,3.4-.254,11.156,11.156,0,0,0-3.5,5.629m-9.315-4.6a4.408,4.408,0,0,0,.513.455,4.76,4.76,0,0,0,5.069.106A3.625,3.625,0,0,0,26.3,24.112a3.73,3.73,0,0,0-.162-2.405,2.4,2.4,0,0,0-3.55-1.067,1.828,1.828,0,0,0-.47,2.864,1,1,0,0,0,.433.128c.1,0,.118-.04.1-.064-.032-.042-.164.007-.323-.307a1.477,1.477,0,0,1,.167-1.469,1.734,1.734,0,0,1,1.326-.613c1.326,0,1.775,1.189,1.707,2.257a3.232,3.232,0,0,1-1.953,2.906,3.517,3.517,0,0,1-4.292-1.369c.037-.378.079-.675.107-.868a12.9,12.9,0,0,1,2.1-5.222c3.225-4.649,8.729-6.224,12.826-6.123a23.739,23.739,0,0,1,3.393.38h0c.229.045.459.092.692.143a23.444,23.444,0,0,1,6.647,2.532,44.9,44.9,0,0,0,4.432,9.2c.17.3.231.5-.179.252-.723-.436-1.6-.856-2.4-1.247a16.242,16.242,0,0,0-8.845-1.955c1.077-1.265,1.767-4.511-1.176-5.943a3.638,3.638,0,0,0-3.455.126,2.568,2.568,0,0,0-1.061,1.341,2.47,2.47,0,0,0,.809,2.609,2.152,2.152,0,0,0,2.17.314.809.809,0,0,0,.537-.778c0-.086-.038-.131-.108-.107s-.123.157-.246.272a1.451,1.451,0,0,1-1.374.217,1.583,1.583,0,0,1-1.046-1.237A1.867,1.867,0,0,1,34,17.025a2.822,2.822,0,0,1,2.4-.1,2.763,2.763,0,0,1,1.575,3.1,3.33,3.33,0,0,1-1.412,2.25A10.844,10.844,0,0,0,32.841,24.1a5.624,5.624,0,0,0-1.866-.364,5.456,5.456,0,0,0-5.785,4.577,4.6,4.6,0,0,0,2,4.611,5.6,5.6,0,0,0,.976.519A11.407,11.407,0,0,0,29.2,37.961a12.812,12.812,0,0,1-2.512-.361,8.747,8.747,0,0,1-5.377-3.919,12.792,12.792,0,0,1-2.08-7.915m.273-7.79c1.265-2.362,2.531-4.492,9.163-5.174a15.271,15.271,0,0,0-6.9,4.5,16.076,16.076,0,0,0-2.945,6.76,8.7,8.7,0,0,1,.686-6.082m-9.56,9.683c.17-.5.321-.889.424-1.134a22.973,22.973,0,0,1,8.6-10.3A16.526,16.526,0,0,0,12.4,28.963a6.8,6.8,0,0,1-1.2-.476,7.533,7.533,0,0,1-1.252-.828M27.745,2.1l.072.02A6.444,6.444,0,0,0,25.787,7.1,3.916,3.916,0,0,0,27.625,10a3.861,3.861,0,0,0,3.247.412A3.574,3.574,0,0,0,33.2,8.2a2.69,2.69,0,0,0-.856-2.812,2.417,2.417,0,0,0-2.433-.444A1.756,1.756,0,0,0,28.9,6.381a1.587,1.587,0,0,0,.2.948c.113.256.384.439.534.37s.211-.268.393-.787a1.082,1.082,0,0,1,.478-.692,1.528,1.528,0,0,1,1.04-.256,1.49,1.49,0,0,1,1.293,1.081,2.348,2.348,0,0,1-1.04,2.45,3.233,3.233,0,0,1-1.911.666,3.175,3.175,0,0,1-2.977-1.978c-.885-2.072.586-4.2.834-4.57a5.1,5.1,0,0,1,1.128-1.2,28.2,28.2,0,0,1,9.941,5.376,27.913,27.913,0,0,1,5.345,6.174,26.471,26.471,0,0,0-13.563-2.4A24.5,24.5,0,0,0,20.275,14.33,23.889,23.889,0,0,0,9.338,27.124a13.536,13.536,0,0,1-3.093-5.016,12.806,12.806,0,0,1-.055-7.556A16.366,16.366,0,0,1,10.6,7.417c.2-.2.418-.393.636-.579a5.749,5.749,0,0,1,3.112-1.366,4.506,4.506,0,0,1,1.88.254,4.907,4.907,0,0,1,2.255,1.712,4.828,4.828,0,0,1,.794,3.689c-.381,2.792-2.757,4.534-5.545,3.361A2.982,2.982,0,0,1,12.193,13.2a2.46,2.46,0,0,1,.587-2.9,1.953,1.953,0,0,1,3.05.324c.243.569.693,1.369,1.148,1.34.517-.032.47-.816.4-1.181A2.835,2.835,0,0,0,14.1,8.823a3.507,3.507,0,0,0-2.3,1.522,3.454,3.454,0,0,0,.086,3.631,4.326,4.326,0,0,0,4.258,1.78,4.984,4.984,0,0,0,3.8-3.953,5.7,5.7,0,0,0-.762-4.2,5.787,5.787,0,0,0-2.172-1.934,5.31,5.31,0,0,0-3.552-.4A25.846,25.846,0,0,1,21.331,2.4c2.107-.368,4.7-.727,6.415-.306" transform="translate(0 0)" fill="#8e8e8f"/>
    <path id="パス_12" data-name="パス 12" d="M90.12,61.083Z" transform="translate(-29.165 -19.875)" fill="#8e8e8f"/>
    <path id="パス_13" data-name="パス 13" d="M101.6,43.874c-.4.235-.969-.761-.988-1.042a1.671,1.671,0,0,0-.02.958c.269.849,1.777.683,2.009-.108a1.557,1.557,0,0,0-.237-1.23A2.347,2.347,0,0,0,100,41.324a2.372,2.372,0,0,0-1.447,1.884l-.922-.245c-.417-.111-.8-1.41-.8-1.751a.859.859,0,0,1,.655-.874.707.707,0,0,1,.649.3,6.4,6.4,0,0,1,.212.9A.643.643,0,0,0,98.76,41c-.027-.3,0-.739-.264-.941A.879.879,0,0,0,98.1,39.9a1.316,1.316,0,0,0-1.589,1.014,2.135,2.135,0,0,0-.021,1.023c.053.209.268.437.26.652-.01.288-.921.509-1.227.7a4.271,4.271,0,0,0-1.276,1.233c-1.017,1.523-.661,3.084-.118,4.678.237.695.638,1.318.9,2a6.282,6.282,0,0,1,.366,2.14,20.905,20.905,0,0,1-1.148,6.03c-1.048,3.6.173,7.706,1.691,11,.849,1.84,2.235,3.721,2.168,5.829a5.275,5.275,0,0,0-.07,1.16c.767-.374.692-1.727.7-2.421.009-1.19-.124-2.375-.223-3.559a12.833,12.833,0,0,0-.985-3.831,16.343,16.343,0,0,1-1.381-6.2,7,7,0,0,1,.674-3.732,3.577,3.577,0,0,1,.71-1.018c.491-.43,1.082-.093,1.5.324,1.712,1.715,1.854,4.153,1.9,6.426a46.035,46.035,0,0,1-.162,4.83q-.106,1.227-.277,2.449a5.019,5.019,0,0,1-.308,1.845,16.324,16.324,0,0,0,2.416-7.368,17.165,17.165,0,0,0-1.936-9.785,24.308,24.308,0,0,0-3.188-4.238c-1.092-1.248-2.777-2.538-2.448-4.374,0,0,.327-1.415,1.515-1.49a4.035,4.035,0,0,0,2.669,1.925,4.921,4.921,0,0,0,1.732,1.732s.333-.356-.672-2.043a4.547,4.547,0,0,0-1.084-3.526s-.163-1.268.951-1.477c.967-.181,2.155.99,1.553,1.946a.283.283,0,0,1-.089.1" transform="translate(-30.293 -12.976)" fill="#8e8e8f"/>
  </g>
</svg>
